<?xml version="1.0" encoding="utf-8"?>
<!-- Generator: Adobe Illustrator 16.0.0, SVG Export Plug-In . SVG Version: 6.00 Build 0)  -->
<!DOCTYPE svg PUBLIC "-//W3C//DTD SVG 1.1//EN" "http://www.w3.org/Graphics/SVG/1.1/DTD/svg11.dtd">
<svg version="1.1" id="Layer_1" xmlns="http://www.w3.org/2000/svg" xmlns:xlink="http://www.w3.org/1999/xlink" x="0px" y="0px"
	 width="1038.23px" height="184.212px" viewBox="0 0 1038.23 184.212" enable-background="new 0 0 1038.23 184.212"
	 xml:space="preserve">
<g>
	<defs>
		<rect id="SVGID_1_" width="1038.23" height="184.212"/>
	</defs>
	<clipPath id="SVGID_2_">
		<use xlink:href="#SVGID_1_"  overflow="visible"/>
	</clipPath>
	<path clip-path="url(#SVGID_2_)" fill="#F05A22" d="M80.29,0C35.95,0,0,35.94,0,80.29c0,44.34,35.95,80.291,80.29,80.291
		s80.29-35.95,80.29-80.291C160.58,35.94,124.63,0,80.29,0 M122.5,130.8H94.65L61.46,86.2v44.6H38.08V29.78h23.38v44.88l33.33-44.88
		h27.71L82.82,79.85L122.5,130.8z"/>
	<path clip-path="url(#SVGID_2_)" fill="#FFFFFF" d="M251.93,78.481c15.39-2.85,25.46-13.11,25.46-30.4
		c0-21.47-16.34-34.58-42.75-34.58h-54.72v133h56.81c26.41,0,42.56-14.061,42.56-36.86C279.29,91.211,267.32,80.001,251.93,78.481
		 M210.7,35.731h17.1c11.97,0,18.81,6.08,18.81,16.15s-7.03,16.15-18.81,16.15h-17.1V35.731z M229.89,123.131H210.7v-33.82h19.19
		c11.02,0,18.43,6.459,18.43,16.34C248.32,116.671,241.29,123.131,229.89,123.131"/>
	<path clip-path="url(#SVGID_2_)" fill="#FFFFFF" d="M362.89,54.921v13.11c-4.94-9.31-15.39-15.58-28.69-15.58
		c-26.6,0-43.51,20.9-43.51,48.26c0,27.55,15.77,48.26,43.13,48.26c12.73,0,24.13-6.27,29.07-15.39v12.92h28.88v-91.58H362.89z
		 M342.18,124.841c-13.49,0-21.85-10.26-21.85-24.13s8.36-23.94,21.85-23.94c14.44,0,21.85,10.83,21.85,23.94
		C364.03,114.011,356.62,124.841,342.18,124.841"/>
	<path clip-path="url(#SVGID_2_)" fill="#FFFFFF" d="M508.05,89.881v56.62h-29.26v-47.12c0-15.39-4.37-22.42-16.15-22.42
		c-11.59,0-17.67,7.6-17.67,21.66v47.88H415.9v-91.58h29.07v13.3c5.32-10.26,15.77-15.77,29.64-15.77
		C496.84,52.451,508.05,64.991,508.05,89.881"/>
	<polygon clip-path="url(#SVGID_2_)" fill="#FFFFFF" points="587.85,98.241 624.9,146.501 589.37,146.501 560.3,106.791 
		560.3,146.501 531.229,146.501 531.229,13.501 560.3,13.501 560.3,93.111 590.13,54.921 624.33,54.921 	"/>
	<path clip-path="url(#SVGID_2_)" fill="#F05A22" d="M673.92,129.781c0,10.069-8.17,18.619-18.81,18.619
		c-10.641,0-18.811-8.55-18.811-18.619c0-10.261,8.17-18.62,18.811-18.62C665.75,111.161,673.92,119.521,673.92,129.781"/>
	<path clip-path="url(#SVGID_2_)" fill="#FFFFFF" d="M251.93,78.481c15.39-2.85,25.46-13.11,25.46-30.4
		c0-21.47-16.34-34.58-42.75-34.58h-54.72v133h56.81c26.41,0,42.56-14.061,42.56-36.86C279.29,91.211,267.32,80.001,251.93,78.481
		 M210.7,35.731h17.1c11.97,0,18.81,6.08,18.81,16.15s-7.03,16.15-18.81,16.15h-17.1V35.731z M229.89,123.131H210.7v-33.82h19.19
		c11.02,0,18.43,6.459,18.43,16.34C248.32,116.671,241.29,123.131,229.89,123.131"/>
	<path clip-path="url(#SVGID_2_)" fill="#FFFFFF" d="M362.89,54.921v13.11c-4.94-9.31-15.39-15.58-28.69-15.58
		c-26.6,0-43.51,20.9-43.51,48.26c0,27.55,15.77,48.26,43.13,48.26c12.73,0,24.13-6.27,29.07-15.39v12.92h28.88v-91.58H362.89z
		 M342.18,124.841c-13.49,0-21.85-10.26-21.85-24.13s8.36-23.94,21.85-23.94c14.44,0,21.85,10.83,21.85,23.94
		C364.03,114.011,356.62,124.841,342.18,124.841"/>
	<path clip-path="url(#SVGID_2_)" fill="#FFFFFF" d="M508.05,89.881v56.62h-29.26v-47.12c0-15.39-4.37-22.42-16.15-22.42
		c-11.59,0-17.67,7.6-17.67,21.66v47.88H415.9v-91.58h29.07v13.3c5.32-10.26,15.77-15.77,29.64-15.77
		C496.84,52.451,508.05,64.991,508.05,89.881"/>
	<polygon clip-path="url(#SVGID_2_)" fill="#FFFFFF" points="624.9,146.501 589.37,146.501 560.3,106.791 560.3,146.501 
		531.23,146.501 531.23,13.501 560.3,13.501 560.3,93.111 590.13,54.921 624.33,54.921 587.85,98.241 	"/>
	<path clip-path="url(#SVGID_2_)" fill="#FFFFFF" d="M769.742,130.474H722.98l-4.525,16.027h-32.242L730.9,14.513h30.733
		l44.876,131.988h-32.243L769.742,130.474z M762.954,106.527l-16.593-58.64l-16.594,58.64H762.954z"/>
	<path clip-path="url(#SVGID_2_)" fill="#FFFFFF" d="M920.578,101.06c0,28.472-17.535,47.893-42.612,47.893
		c-13.388,0-24.323-6.788-28.849-15.272v50.532h-28.85V55.619h28.85v13.01c4.714-8.673,16.025-15.462,29.603-15.462
		C903.608,53.167,920.578,72.399,920.578,101.06 M891.164,101.06c0-13.953-8.862-23.758-21.495-23.758
		c-13.01,0-21.872,9.616-21.872,23.758c0,14.33,9.051,23.946,21.872,23.946C882.302,125.006,891.164,115.201,891.164,101.06"/>
	<path clip-path="url(#SVGID_2_)" fill="#FFFFFF" d="M1038.23,101.06c0,28.472-17.535,47.893-42.612,47.893
		c-13.388,0-24.323-6.788-28.849-15.272v50.532h-28.85V55.619h28.85v13.01c4.714-8.673,16.025-15.462,29.603-15.462
		C1021.26,53.167,1038.23,72.399,1038.23,101.06 M1008.816,101.06c0-13.953-8.862-23.758-21.495-23.758
		c-13.01,0-21.872,9.616-21.872,23.758c0,14.33,9.051,23.946,21.872,23.946C999.954,125.006,1008.816,115.201,1008.816,101.06"/>
</g>
</svg>
