<?xml version="1.0" encoding="UTF-8" standalone="no"?>
<!-- Created with Inkscape (http://www.inkscape.org/) -->

<svg
   width="266.34601"
   height="253.787"
   viewBox="0 0 70.470715 67.147813"
   version="1.1"
   id="svg1"
   inkscape:version="1.3.2 (091e20e, 2023-11-25, custom)"
   sodipodi:docname="OtherStar.svg"
   xmlns:inkscape="http://www.inkscape.org/namespaces/inkscape"
   xmlns:sodipodi="http://sodipodi.sourceforge.net/DTD/sodipodi-0.dtd"
   xmlns="http://www.w3.org/2000/svg"
   xmlns:svg="http://www.w3.org/2000/svg">
  <sodipodi:namedview
     id="namedview1"
     pagecolor="#ffffff"
     bordercolor="#000000"
     borderopacity="0.25"
     inkscape:showpageshadow="2"
     inkscape:pageopacity="0.0"
     inkscape:pagecheckerboard="0"
     inkscape:deskcolor="#d1d1d1"
     inkscape:document-units="mm"
     inkscape:zoom="1.4627806"
     inkscape:cx="24.268848"
     inkscape:cy="182.18727"
     inkscape:window-width="1920"
     inkscape:window-height="1017"
     inkscape:window-x="-8"
     inkscape:window-y="844"
     inkscape:window-maximized="1"
     inkscape:current-layer="layer1" />
  <defs
     id="defs1" />
  <g
     inkscape:label="Layer 1"
     inkscape:groupmode="layer"
     id="layer1">
    <path
       sodipodi:type="star"
       style="fill:#000000;stroke-width:0.264583"
       id="path1"
       inkscape:flatsided="false"
       sodipodi:sides="5"
       sodipodi:cx="51.007305"
       sodipodi:cy="71.989037"
       sodipodi:r1="36.962688"
       sodipodi:r2="27.134898"
       sodipodi:arg1="-1.5707963"
       sodipodi:arg2="-0.78185536"
       inkscape:rounded="0.11"
       inkscape:randomized="0"
       d="m 51.007306,35.026348 c 2.850488,0.462004 16.918865,16.146278 19.255125,17.843516 1.571976,1.142003 15.601441,5.776906 15.89848,7.697075 C 86.602369,63.42068 76.033105,81.64721 75.14088,84.3936 c -0.600342,1.847937 -0.673054,16.62301 -2.407453,17.49888 -2.577651,1.30171 -23.178193,-3.117954 -26.065878,-3.117829 -1.943008,8.5e-5 -16.017411,4.496679 -17.386368,3.117829 C 27.246647,99.843236 25.084076,78.885206 24.191613,76.138893 23.59111,74.291009 14.965363,62.294981 15.8537,60.566937 17.17394,57.998729 36.43794,49.465614 38.774052,47.768174 40.345929,46.626035 49.089327,34.715484 51.007306,35.026348 Z"
       inkscape:transform-center-y="-3.5296234"
       transform="translate(-15.804874,-34.996092)" />
  </g>
</svg>
